<?xml version="1.0" encoding="utf-8"?>
<!-- Generator: Adobe Illustrator 21.0.0, SVG Export Plug-In . SVG Version: 6.00 Build 0)  -->
<svg version="1.1" id="Layer_1" xmlns="http://www.w3.org/2000/svg" xmlns:xlink="http://www.w3.org/1999/xlink" x="0px" y="0px"
	 viewBox="0 0 256 256" enable-background="new 0 0 256 256" xml:space="preserve">
<path fill="#2D251C" stroke="#F7931E" stroke-width="16.8214283" stroke-linecap="round" stroke-miterlimit="10" d="
	M233.3839264,246H23.1160717C16.1772327,246,10.5,240.3227692,10.5,233.3839264V23.1160717
	C10.5,16.1772327,16.1772327,10.5,23.1160717,10.5h210.2678528C240.3227692,10.5,246,16.1772327,246,23.1160717v210.2678528
	C246,240.3227692,240.3227692,246,233.3839264,246z"/>
<g>
	<path fill="#F7931E" d="M54.1401367,164.5H38.0200195v-16.1201172h16.1201172V164.5z"/>
	<path fill="#F7931E" d="M84.8193359,89.6201172H68.6992188V73.5h16.1201172V89.6201172z M84.8193359,164.5H68.6992188v-65
		h16.1201172V164.5z"/>
	<path fill="#F7931E" d="M127.71875,165.7998047c-9.96875,0-17.7456055-3.2050781-23.3359375-9.6201172
		c-5.5898438-6.4121094-8.3847656-14.4296875-8.3847656-24.0498047s2.7949219-17.6352539,8.3847656-24.0498047
		c5.590332-6.4125977,13.3671875-9.6201172,23.3359375-9.6201172c7.8847656,0,14.3847656,1.6044922,19.5,4.8100586
		l-1.4316406,13.7797852c-5.3730469-3.5522461-10.9648438-5.3295898-16.7695313-5.3295898
		c-5.1152344,0-9.1210938,1.8642578-12.0253906,5.5898438c-2.9042969,3.7270508-4.3535156,8.6674805-4.3535156,14.8198242
		c0,6.1552734,1.4492188,11.0947266,4.3535156,14.8203125c2.9042969,3.7275391,6.9101563,5.5898438,12.0253906,5.5898438
		c5.8046875,0,11.3964844-1.7753906,16.7695313-5.3300781l1.4316406,13.7802734
		C142.1035156,164.1972656,135.6035156,165.7998047,127.71875,165.7998047z"/>
	<path fill="#F7931E" d="M210.6601563,156.0498047c-5.9775391,6.5-13.9726563,9.75-23.9873047,9.75
		c-10.0136719,0-18.0107422-3.25-23.9892578-9.75c-5.9775391-6.5-8.9658203-14.4726563-8.9658203-23.9199219
		c0-9.4453125,2.9882813-17.4199219,8.9658203-23.9199219c5.9785156-6.5,13.9755859-9.75,23.9892578-9.75
		c10.0146484,0,18.0097656,3.25,23.9873047,9.75s8.9677734,14.4746094,8.9677734,23.9199219
		C219.6279297,141.5771484,216.6376953,149.5498047,210.6601563,156.0498047z M198.6494141,117.3100586
		c-2.8925781-3.7255859-6.8837891-5.5898438-11.9765625-5.5898438c-5.09375,0-9.0859375,1.8642578-11.9775391,5.5898438
		c-2.8925781,3.7270508-4.3369141,8.6674805-4.3369141,14.8198242c0,6.1552734,1.4443359,11.0947266,4.3369141,14.8203125
		c2.8916016,3.7275391,6.8837891,5.5898438,11.9775391,5.5898438c5.0927734,0,9.0839844-1.8623047,11.9765625-5.5898438
		c2.8925781-3.7255859,4.3388672-8.6650391,4.3388672-14.8203125
		C202.9882813,125.9775391,201.5419922,121.0371094,198.6494141,117.3100586z"/>
</g>
<g>
</g>
<g>
</g>
<g>
</g>
<g>
</g>
<g>
</g>
<g>
</g>
<g>
</g>
<g>
</g>
<g>
</g>
<g>
</g>
<g>
</g>
<g>
</g>
<g>
</g>
<g>
</g>
<g>
</g>
</svg>
